<svg width="1200" height="260" viewBox="0 0 1200 260" fill="none" xmlns="http://www.w3.org/2000/svg">
  <defs>
    <linearGradient id="bgP" x1="0" y1="0" x2="1200" y2="260" gradientUnits="userSpaceOnUse">
      <stop stop-color="#082F49"/>
      <stop offset="1" stop-color="#115E59"/>
    </linearGradient>
  </defs>
  <rect width="1200" height="260" rx="26" fill="url(#bgP)"/>
  <circle cx="1080" cy="58" r="96" fill="#67E8F9" fill-opacity="0.2"/>
  <circle cx="150" cy="40" r="72" fill="#2DD4BF" fill-opacity="0.2"/>

  <rect x="84" y="46" width="360" height="72" rx="16" fill="white" fill-opacity="0.14"/>
  <rect x="106" y="67" width="214" height="14" rx="7" fill="#ECFEFF" fill-opacity="0.9"/>
  <rect x="106" y="91" width="180" height="10" rx="5" fill="#CCFBF1" fill-opacity="0.85"/>

  <rect x="720" y="40" width="376" height="174" rx="20" fill="white" fill-opacity="0.12"/>
  <rect x="744" y="62" width="120" height="10" rx="5" fill="#D1FAE5" fill-opacity="0.75"/>
  <rect x="744" y="88" width="330" height="1" fill="#A7F3D0" fill-opacity="0.45"/>
  <rect x="744" y="106" width="68" height="88" rx="10" fill="#2DD4BF" fill-opacity="0.45"/>
  <rect x="826" y="126" width="68" height="68" rx="10" fill="#22D3EE" fill-opacity="0.45"/>
  <rect x="908" y="94" width="68" height="100" rx="10" fill="#5EEAD4" fill-opacity="0.45"/>
  <rect x="990" y="114" width="84" height="80" rx="10" fill="#99F6E4" fill-opacity="0.45"/>

  <path d="M0 216C126 178 240 179 339 193C438 206 523 236 621 236C719 236 808 206 911 197C1015 187 1112 196 1200 221V260H0V216Z" fill="#2DD4BF" fill-opacity="0.38"/>
</svg>
